<?xml version="1.0" encoding="utf-8" standalone="no"?>
<!DOCTYPE svg PUBLIC "-//W3C//DTD SVG 1.1//EN"
  "http://www.w3.org/Graphics/SVG/1.1/DTD/svg11.dtd">
<!-- Created with matplotlib (https://matplotlib.org/) -->
<svg height="288pt" version="1.1" viewBox="0 0 432 288" width="432pt" xmlns="http://www.w3.org/2000/svg" xmlns:xlink="http://www.w3.org/1999/xlink">
 <defs>
  <style type="text/css">
*{stroke-linecap:butt;stroke-linejoin:round;}
  </style>
 </defs>
 <g id="figure_1">
  <g id="patch_1">
   <path d="M 0 288 
L 432 288 
L 432 0 
L 0 0 
z
" style="fill:#ffffff;"/>
  </g>
  <g id="axes_1">
   <g id="patch_2">
    <path clip-path="url(#pb5d400f964)" d="M 57.704804 165.049512 
Q 56.502906 121.989716 40.359441 83.484563 
" style="fill:none;stroke:#ff0000;stroke-linecap:round;"/>
    <path clip-path="url(#pb5d400f964)" d="M 40.061579 87.946769 
L 40.359441 83.484563 
L 43.750488 86.400176 
L 40.061579 87.946769 
z
" style="fill:#ff0000;stroke:#ff0000;stroke-linecap:round;"/>
   </g>
   <g id="patch_3">
    <path clip-path="url(#pb5d400f964)" d="M 57.704804 165.049512 
Q 59.10369 213.219424 77.38345 256.370402 
" style="fill:none;stroke:#ff0000;stroke-linecap:round;"/>
    <path clip-path="url(#pb5d400f964)" d="M 77.664756 251.907122 
L 77.38345 256.370402 
L 73.98161 253.467389 
L 77.664756 251.907122 
z
" style="fill:#ff0000;stroke:#ff0000;stroke-linecap:round;"/>
   </g>
   <g id="patch_4">
    <path clip-path="url(#pb5d400f964)" d="M 57.704804 165.049512 
Q 106.509116 166.992495 151.427375 151.498139 
" style="fill:none;stroke:#ff0000;stroke-linecap:round;"/>
    <path clip-path="url(#pb5d400f964)" d="M 146.993839 150.911823 
L 151.427375 151.498139 
L 148.298201 154.693177 
L 146.993839 150.911823 
z
" style="fill:#ff0000;stroke:#ff0000;stroke-linecap:round;"/>
   </g>
   <g id="patch_5">
    <path clip-path="url(#pb5d400f964)" d="M 137.273184 59.563487 
Q 188.772615 61.40443 236.146381 44.787151 
" style="fill:none;stroke:#ff0000;stroke-linecap:round;"/>
    <path clip-path="url(#pb5d400f964)" d="M 231.70986 44.223877 
L 236.146381 44.787151 
L 233.033849 47.998404 
L 231.70986 44.223877 
z
" style="fill:#ff0000;stroke:#ff0000;stroke-linecap:round;"/>
   </g>
   <g id="patch_6">
    <path clip-path="url(#pb5d400f964)" d="M 137.273184 59.563487 
Q 88.720038 58.30219 44.27537 74.317828 
" style="fill:none;stroke:#ff0000;stroke-linecap:round;"/>
    <path clip-path="url(#pb5d400f964)" d="M 48.716521 74.843349 
L 44.27537 74.317828 
L 47.360478 71.080219 
L 48.716521 74.843349 
z
" style="fill:#ff0000;stroke:#ff0000;stroke-linecap:round;"/>
   </g>
   <g id="patch_7">
    <path clip-path="url(#pb5d400f964)" d="M 158.250036 149.070572 
Q 209.937433 150.343307 257.282822 133.138957 
" style="fill:none;stroke:#ff0000;stroke-linecap:round;"/>
    <path clip-path="url(#pb5d400f964)" d="M 252.840278 132.625335 
L 257.282822 133.138957 
L 254.206398 136.384819 
L 252.840278 132.625335 
z
" style="fill:#ff0000;stroke:#ff0000;stroke-linecap:round;"/>
   </g>
   <g id="patch_8">
    <path clip-path="url(#pb5d400f964)" d="M 158.250036 149.070572 
Q 109.445724 147.127589 64.527465 162.621946 
" style="fill:none;stroke:#ff0000;stroke-linecap:round;"/>
    <path clip-path="url(#pb5d400f964)" d="M 68.961001 163.208261 
L 64.527465 162.621946 
L 67.656639 159.426907 
L 68.961001 163.208261 
z
" style="fill:#ff0000;stroke:#ff0000;stroke-linecap:round;"/>
   </g>
   <g id="patch_9">
    <path clip-path="url(#pb5d400f964)" d="M 178.717945 247.679989 
Q 131.027701 245.631259 87.102239 260.604499 
" style="fill:none;stroke:#ff0000;stroke-linecap:round;"/>
    <path clip-path="url(#pb5d400f964)" d="M 91.533611 261.206945 
L 87.102239 260.604499 
L 90.243019 257.420869 
L 91.533611 261.206945 
z
" style="fill:#ff0000;stroke:#ff0000;stroke-linecap:round;"/>
   </g>
   <g id="patch_10">
    <path clip-path="url(#pb5d400f964)" d="M 178.717945 247.679989 
Q 228.301784 249.678226 273.960486 233.936437 
" style="fill:none;stroke:#ff0000;stroke-linecap:round;"/>
    <path clip-path="url(#pb5d400f964)" d="M 269.527042 233.349429 
L 273.960486 233.936437 
L 270.830813 237.130987 
L 269.527042 233.349429 
z
" style="fill:#ff0000;stroke:#ff0000;stroke-linecap:round;"/>
   </g>
   <g id="patch_11">
    <path clip-path="url(#pb5d400f964)" d="M 80.272417 263.008264 
Q 78.873531 214.838352 60.593771 171.687374 
" style="fill:none;stroke:#ff0000;stroke-linecap:round;"/>
    <path clip-path="url(#pb5d400f964)" d="M 60.312465 176.150654 
L 60.593771 171.687374 
L 63.995611 174.590387 
L 60.312465 176.150654 
z
" style="fill:#ff0000;stroke:#ff0000;stroke-linecap:round;"/>
   </g>
   <g id="patch_12">
    <path clip-path="url(#pb5d400f964)" d="M 80.272417 263.008264 
Q 127.962661 265.056995 171.888123 250.083755 
" style="fill:none;stroke:#ff0000;stroke-linecap:round;"/>
    <path clip-path="url(#pb5d400f964)" d="M 167.456751 249.481308 
L 171.888123 250.083755 
L 168.747343 253.267385 
L 167.456751 249.481308 
z
" style="fill:#ff0000;stroke:#ff0000;stroke-linecap:round;"/>
   </g>
   <g id="patch_13">
    <path clip-path="url(#pb5d400f964)" d="M 37.487603 76.838653 
Q 86.040749 78.099951 130.485418 62.084312 
" style="fill:none;stroke:#ff0000;stroke-linecap:round;"/>
    <path clip-path="url(#pb5d400f964)" d="M 126.044266 61.558791 
L 130.485418 62.084312 
L 127.40031 65.321921 
L 126.044266 61.558791 
z
" style="fill:#ff0000;stroke:#ff0000;stroke-linecap:round;"/>
   </g>
   <g id="patch_14">
    <path clip-path="url(#pb5d400f964)" d="M 37.487603 76.838653 
Q 38.689501 119.898448 54.832966 158.403602 
" style="fill:none;stroke:#ff0000;stroke-linecap:round;"/>
    <path clip-path="url(#pb5d400f964)" d="M 55.130828 153.941396 
L 54.832966 158.403602 
L 51.441919 155.487989 
L 55.130828 153.941396 
z
" style="fill:#ff0000;stroke:#ff0000;stroke-linecap:round;"/>
   </g>
   <g id="patch_15">
    <path clip-path="url(#pb5d400f964)" d="M 354.320394 24.991736 
Q 299.969244 22.655166 249.78235 39.913679 
" style="fill:none;stroke:#0000ff;stroke-linecap:round;"/>
    <path clip-path="url(#pb5d400f964)" d="M 254.215327 40.504199 
L 249.78235 39.913679 
L 252.914552 36.721609 
L 254.215327 40.504199 
z
" style="fill:#0000ff;stroke:#0000ff;stroke-linecap:round;"/>
   </g>
   <g id="patch_16">
    <path clip-path="url(#pb5d400f964)" d="M 373.201 113.01721 
Q 319.938691 111.012395 270.876879 128.155439 
" style="fill:none;stroke:#008000;stroke-linecap:round;"/>
    <path clip-path="url(#pb5d400f964)" d="M 275.312719 128.724058 
L 270.876879 128.155439 
L 273.993277 124.947939 
L 275.312719 128.724058 
z
" style="fill:#008000;stroke:#008000;stroke-linecap:round;"/>
   </g>
   <g id="patch_17">
    <path clip-path="url(#pb5d400f964)" d="M 394.512397 211.845012 
Q 338.751095 210.38523 287.574076 228.978222 
" style="fill:none;stroke:#ff0000;stroke-linecap:round;"/>
    <path clip-path="url(#pb5d400f964)" d="M 292.016587 229.492127 
L 287.574076 228.978222 
L 290.650707 225.732557 
L 292.016587 229.492127 
z
" style="fill:#ff0000;stroke:#ff0000;stroke-linecap:round;"/>
   </g>
   <g id="patch_18">
    <path clip-path="url(#pb5d400f964)" d="M 242.956179 42.327946 
Q 297.307329 44.664515 348.340035 27.115141 
" style="fill:none;stroke:#000000;stroke-linecap:round;stroke-width:0.2;"/>
    <path clip-path="url(#pb5d400f964)" d="M 343.907058 26.524621 
L 348.340035 27.115141 
L 345.207833 30.307211 
L 343.907058 26.524621 
z
" style="stroke:#000000;stroke-linecap:round;stroke-width:0.2;"/>
   </g>
   <g id="patch_19">
    <path clip-path="url(#pb5d400f964)" d="M 242.956179 42.327946 
Q 191.456748 40.487003 144.082982 57.104282 
" style="fill:none;stroke:#ff0000;stroke-linecap:round;"/>
    <path clip-path="url(#pb5d400f964)" d="M 148.519504 57.667556 
L 144.082982 57.104282 
L 147.195514 53.893029 
L 148.519504 57.667556 
z
" style="fill:#ff0000;stroke:#ff0000;stroke-linecap:round;"/>
   </g>
   <g id="patch_20">
    <path clip-path="url(#pb5d400f964)" d="M 264.063942 130.604262 
Q 317.326251 132.609077 367.232429 115.170996 
" style="fill:none;stroke:#000000;stroke-linecap:round;stroke-width:0.2;"/>
    <path clip-path="url(#pb5d400f964)" d="M 362.796589 114.602378 
L 367.232429 115.170996 
L 364.116031 118.378497 
L 362.796589 114.602378 
z
" style="stroke:#000000;stroke-linecap:round;stroke-width:0.2;"/>
   </g>
   <g id="patch_21">
    <path clip-path="url(#pb5d400f964)" d="M 264.063942 130.604262 
Q 212.376545 129.331527 165.031157 146.535877 
" style="fill:none;stroke:#ff0000;stroke-linecap:round;"/>
    <path clip-path="url(#pb5d400f964)" d="M 169.4737 147.049499 
L 165.031157 146.535877 
L 168.107581 143.290015 
L 169.4737 147.049499 
z
" style="fill:#ff0000;stroke:#ff0000;stroke-linecap:round;"/>
   </g>
   <g id="patch_22">
    <path clip-path="url(#pb5d400f964)" d="M 280.78634 231.510013 
Q 231.202501 229.511777 185.543799 245.253566 
" style="fill:none;stroke:#ff0000;stroke-linecap:round;"/>
    <path clip-path="url(#pb5d400f964)" d="M 189.977242 245.840574 
L 185.543799 245.253566 
L 188.673471 242.059016 
L 189.977242 245.840574 
z
" style="fill:#ff0000;stroke:#ff0000;stroke-linecap:round;"/>
   </g>
   <g id="patch_23">
    <path clip-path="url(#pb5d400f964)" d="M 280.78634 231.510013 
Q 336.547641 232.969795 388.565326 214.071383 
" style="fill:none;stroke:#000000;stroke-linecap:round;stroke-width:0.2;"/>
    <path clip-path="url(#pb5d400f964)" d="M 384.122815 213.557477 
L 388.565326 214.071383 
L 385.488695 217.317048 
L 384.122815 213.557477 
z
" style="stroke:#000000;stroke-linecap:round;stroke-width:0.2;"/>
   </g>
   <g id="PathCollection_1">
    <defs>
     <path d="M 0 6.123724 
C 1.624031 6.123724 3.181764 5.47849 4.330127 4.330127 
C 5.47849 3.181764 6.123724 1.624031 6.123724 0 
C 6.123724 -1.624031 5.47849 -3.181764 4.330127 -4.330127 
C 3.181764 -5.47849 1.624031 -6.123724 0 -6.123724 
C -1.624031 -6.123724 -3.181764 -5.47849 -4.330127 -4.330127 
C -5.47849 -3.181764 -6.123724 -1.624031 -6.123724 0 
C -6.123724 1.624031 -5.47849 3.181764 -4.330127 4.330127 
C -3.181764 5.47849 -1.624031 6.123724 0 6.123724 
z
" id="mcd6734c117" style="stroke:#ffa500;"/>
    </defs>
    <g clip-path="url(#pb5d400f964)">
     <use style="fill:#ffa500;stroke:#ffa500;" x="57.704804" xlink:href="#mcd6734c117" y="165.049512"/>
     <use style="fill:#ffa500;stroke:#ffa500;" x="137.273184" xlink:href="#mcd6734c117" y="59.563487"/>
     <use style="fill:#ffa500;stroke:#ffa500;" x="158.250036" xlink:href="#mcd6734c117" y="149.070572"/>
     <use style="fill:#ffa500;stroke:#ffa500;" x="178.717945" xlink:href="#mcd6734c117" y="247.679989"/>
     <use style="fill:#ffa500;stroke:#ffa500;" x="80.272417" xlink:href="#mcd6734c117" y="263.008264"/>
     <use style="fill:#ffa500;stroke:#ffa500;" x="37.487603" xlink:href="#mcd6734c117" y="76.838653"/>
     <use style="fill:#ffa500;stroke:#ffa500;" x="354.320394" xlink:href="#mcd6734c117" y="24.991736"/>
     <use style="fill:#ffa500;stroke:#ffa500;" x="373.201" xlink:href="#mcd6734c117" y="113.01721"/>
     <use style="fill:#ffa500;stroke:#ffa500;" x="394.512397" xlink:href="#mcd6734c117" y="211.845012"/>
     <use style="fill:#ffa500;stroke:#ffa500;" x="242.956179" xlink:href="#mcd6734c117" y="42.327946"/>
     <use style="fill:#ffa500;stroke:#ffa500;" x="264.063942" xlink:href="#mcd6734c117" y="130.604262"/>
     <use style="fill:#ffa500;stroke:#ffa500;" x="280.78634" xlink:href="#mcd6734c117" y="231.510013"/>
    </g>
   </g>
   <g id="text_1">
    <g clip-path="url(#pb5d400f964)">
     <!-- 1 -->
     <defs>
      <path d="M 12.40625 8.296875 
L 28.515625 8.296875 
L 28.515625 63.921875 
L 10.984375 60.40625 
L 10.984375 69.390625 
L 28.421875 72.90625 
L 38.28125 72.90625 
L 38.28125 8.296875 
L 54.390625 8.296875 
L 54.390625 0 
L 12.40625 0 
z
" id="DejaVuSans-49"/>
     </defs>
     <g transform="translate(53.887304 168.360762)scale(0.12 -0.12)">
      <use xlink:href="#DejaVuSans-49"/>
     </g>
    </g>
   </g>
   <g id="text_2">
    <g clip-path="url(#pb5d400f964)">
     <!-- 10 -->
     <defs>
      <path d="M 31.78125 66.40625 
Q 24.171875 66.40625 20.328125 58.90625 
Q 16.5 51.421875 16.5 36.375 
Q 16.5 21.390625 20.328125 13.890625 
Q 24.171875 6.390625 31.78125 6.390625 
Q 39.453125 6.390625 43.28125 13.890625 
Q 47.125 21.390625 47.125 36.375 
Q 47.125 51.421875 43.28125 58.90625 
Q 39.453125 66.40625 31.78125 66.40625 
z
M 31.78125 74.21875 
Q 44.046875 74.21875 50.515625 64.515625 
Q 56.984375 54.828125 56.984375 36.375 
Q 56.984375 17.96875 50.515625 8.265625 
Q 44.046875 -1.421875 31.78125 -1.421875 
Q 19.53125 -1.421875 13.0625 8.265625 
Q 6.59375 17.96875 6.59375 36.375 
Q 6.59375 54.828125 13.0625 64.515625 
Q 19.53125 74.21875 31.78125 74.21875 
z
" id="DejaVuSans-48"/>
     </defs>
     <g transform="translate(129.638184 62.874737)scale(0.12 -0.12)">
      <use xlink:href="#DejaVuSans-49"/>
      <use x="63.623047" xlink:href="#DejaVuSans-48"/>
     </g>
    </g>
   </g>
   <g id="text_3">
    <g clip-path="url(#pb5d400f964)">
     <!-- 11 -->
     <g transform="translate(150.615036 152.381822)scale(0.12 -0.12)">
      <use xlink:href="#DejaVuSans-49"/>
      <use x="63.623047" xlink:href="#DejaVuSans-49"/>
     </g>
    </g>
   </g>
   <g id="text_4">
    <g clip-path="url(#pb5d400f964)">
     <!-- 12 -->
     <defs>
      <path d="M 19.1875 8.296875 
L 53.609375 8.296875 
L 53.609375 0 
L 7.328125 0 
L 7.328125 8.296875 
Q 12.9375 14.109375 22.625 23.890625 
Q 32.328125 33.6875 34.8125 36.53125 
Q 39.546875 41.84375 41.421875 45.53125 
Q 43.3125 49.21875 43.3125 52.78125 
Q 43.3125 58.59375 39.234375 62.25 
Q 35.15625 65.921875 28.609375 65.921875 
Q 23.96875 65.921875 18.8125 64.3125 
Q 13.671875 62.703125 7.8125 59.421875 
L 7.8125 69.390625 
Q 13.765625 71.78125 18.9375 73 
Q 24.125 74.21875 28.421875 74.21875 
Q 39.75 74.21875 46.484375 68.546875 
Q 53.21875 62.890625 53.21875 53.421875 
Q 53.21875 48.921875 51.53125 44.890625 
Q 49.859375 40.875 45.40625 35.40625 
Q 44.1875 33.984375 37.640625 27.21875 
Q 31.109375 20.453125 19.1875 8.296875 
z
" id="DejaVuSans-50"/>
     </defs>
     <g transform="translate(171.082945 250.991239)scale(0.12 -0.12)">
      <use xlink:href="#DejaVuSans-49"/>
      <use x="63.623047" xlink:href="#DejaVuSans-50"/>
     </g>
    </g>
   </g>
   <g id="text_5">
    <g clip-path="url(#pb5d400f964)">
     <!-- 2 -->
     <g transform="translate(76.454917 266.319514)scale(0.12 -0.12)">
      <use xlink:href="#DejaVuSans-50"/>
     </g>
    </g>
   </g>
   <g id="text_6">
    <g clip-path="url(#pb5d400f964)">
     <!-- 3 -->
     <defs>
      <path d="M 40.578125 39.3125 
Q 47.65625 37.796875 51.625 33 
Q 55.609375 28.21875 55.609375 21.1875 
Q 55.609375 10.40625 48.1875 4.484375 
Q 40.765625 -1.421875 27.09375 -1.421875 
Q 22.515625 -1.421875 17.65625 -0.515625 
Q 12.796875 0.390625 7.625 2.203125 
L 7.625 11.71875 
Q 11.71875 9.328125 16.59375 8.109375 
Q 21.484375 6.890625 26.8125 6.890625 
Q 36.078125 6.890625 40.9375 10.546875 
Q 45.796875 14.203125 45.796875 21.1875 
Q 45.796875 27.640625 41.28125 31.265625 
Q 36.765625 34.90625 28.71875 34.90625 
L 20.21875 34.90625 
L 20.21875 43.015625 
L 29.109375 43.015625 
Q 36.375 43.015625 40.234375 45.921875 
Q 44.09375 48.828125 44.09375 54.296875 
Q 44.09375 59.90625 40.109375 62.90625 
Q 36.140625 65.921875 28.71875 65.921875 
Q 24.65625 65.921875 20.015625 65.03125 
Q 15.375 64.15625 9.8125 62.3125 
L 9.8125 71.09375 
Q 15.4375 72.65625 20.34375 73.4375 
Q 25.25 74.21875 29.59375 74.21875 
Q 40.828125 74.21875 47.359375 69.109375 
Q 53.90625 64.015625 53.90625 55.328125 
Q 53.90625 49.265625 50.4375 45.09375 
Q 46.96875 40.921875 40.578125 39.3125 
z
" id="DejaVuSans-51"/>
     </defs>
     <g transform="translate(33.670103 80.149903)scale(0.12 -0.12)">
      <use xlink:href="#DejaVuSans-51"/>
     </g>
    </g>
   </g>
   <g id="text_7">
    <g clip-path="url(#pb5d400f964)">
     <!-- 4 -->
     <defs>
      <path d="M 37.796875 64.3125 
L 12.890625 25.390625 
L 37.796875 25.390625 
z
M 35.203125 72.90625 
L 47.609375 72.90625 
L 47.609375 25.390625 
L 58.015625 25.390625 
L 58.015625 17.1875 
L 47.609375 17.1875 
L 47.609375 0 
L 37.796875 0 
L 37.796875 17.1875 
L 4.890625 17.1875 
L 4.890625 26.703125 
z
" id="DejaVuSans-52"/>
     </defs>
     <g transform="translate(350.502894 28.302986)scale(0.12 -0.12)">
      <use xlink:href="#DejaVuSans-52"/>
     </g>
    </g>
   </g>
   <g id="text_8">
    <g clip-path="url(#pb5d400f964)">
     <!-- 5 -->
     <defs>
      <path d="M 10.796875 72.90625 
L 49.515625 72.90625 
L 49.515625 64.59375 
L 19.828125 64.59375 
L 19.828125 46.734375 
Q 21.96875 47.46875 24.109375 47.828125 
Q 26.265625 48.1875 28.421875 48.1875 
Q 40.625 48.1875 47.75 41.5 
Q 54.890625 34.8125 54.890625 23.390625 
Q 54.890625 11.625 47.5625 5.09375 
Q 40.234375 -1.421875 26.90625 -1.421875 
Q 22.3125 -1.421875 17.546875 -0.640625 
Q 12.796875 0.140625 7.71875 1.703125 
L 7.71875 11.625 
Q 12.109375 9.234375 16.796875 8.0625 
Q 21.484375 6.890625 26.703125 6.890625 
Q 35.15625 6.890625 40.078125 11.328125 
Q 45.015625 15.765625 45.015625 23.390625 
Q 45.015625 31 40.078125 35.4375 
Q 35.15625 39.890625 26.703125 39.890625 
Q 22.75 39.890625 18.8125 39.015625 
Q 14.890625 38.140625 10.796875 36.28125 
z
" id="DejaVuSans-53"/>
     </defs>
     <g transform="translate(369.3835 116.32846)scale(0.12 -0.12)">
      <use xlink:href="#DejaVuSans-53"/>
     </g>
    </g>
   </g>
   <g id="text_9">
    <g clip-path="url(#pb5d400f964)">
     <!-- 6 -->
     <defs>
      <path d="M 33.015625 40.375 
Q 26.375 40.375 22.484375 35.828125 
Q 18.609375 31.296875 18.609375 23.390625 
Q 18.609375 15.53125 22.484375 10.953125 
Q 26.375 6.390625 33.015625 6.390625 
Q 39.65625 6.390625 43.53125 10.953125 
Q 47.40625 15.53125 47.40625 23.390625 
Q 47.40625 31.296875 43.53125 35.828125 
Q 39.65625 40.375 33.015625 40.375 
z
M 52.59375 71.296875 
L 52.59375 62.3125 
Q 48.875 64.0625 45.09375 64.984375 
Q 41.3125 65.921875 37.59375 65.921875 
Q 27.828125 65.921875 22.671875 59.328125 
Q 17.53125 52.734375 16.796875 39.40625 
Q 19.671875 43.65625 24.015625 45.921875 
Q 28.375 48.1875 33.59375 48.1875 
Q 44.578125 48.1875 50.953125 41.515625 
Q 57.328125 34.859375 57.328125 23.390625 
Q 57.328125 12.15625 50.6875 5.359375 
Q 44.046875 -1.421875 33.015625 -1.421875 
Q 20.359375 -1.421875 13.671875 8.265625 
Q 6.984375 17.96875 6.984375 36.375 
Q 6.984375 53.65625 15.1875 63.9375 
Q 23.390625 74.21875 37.203125 74.21875 
Q 40.921875 74.21875 44.703125 73.484375 
Q 48.484375 72.75 52.59375 71.296875 
z
" id="DejaVuSans-54"/>
     </defs>
     <g transform="translate(390.694897 215.156262)scale(0.12 -0.12)">
      <use xlink:href="#DejaVuSans-54"/>
     </g>
    </g>
   </g>
   <g id="text_10">
    <g clip-path="url(#pb5d400f964)">
     <!-- 7 -->
     <defs>
      <path d="M 8.203125 72.90625 
L 55.078125 72.90625 
L 55.078125 68.703125 
L 28.609375 0 
L 18.3125 0 
L 43.21875 64.59375 
L 8.203125 64.59375 
z
" id="DejaVuSans-55"/>
     </defs>
     <g transform="translate(239.138679 45.639196)scale(0.12 -0.12)">
      <use xlink:href="#DejaVuSans-55"/>
     </g>
    </g>
   </g>
   <g id="text_11">
    <g clip-path="url(#pb5d400f964)">
     <!-- 8 -->
     <defs>
      <path d="M 31.78125 34.625 
Q 24.75 34.625 20.71875 30.859375 
Q 16.703125 27.09375 16.703125 20.515625 
Q 16.703125 13.921875 20.71875 10.15625 
Q 24.75 6.390625 31.78125 6.390625 
Q 38.8125 6.390625 42.859375 10.171875 
Q 46.921875 13.96875 46.921875 20.515625 
Q 46.921875 27.09375 42.890625 30.859375 
Q 38.875 34.625 31.78125 34.625 
z
M 21.921875 38.8125 
Q 15.578125 40.375 12.03125 44.71875 
Q 8.5 49.078125 8.5 55.328125 
Q 8.5 64.0625 14.71875 69.140625 
Q 20.953125 74.21875 31.78125 74.21875 
Q 42.671875 74.21875 48.875 69.140625 
Q 55.078125 64.0625 55.078125 55.328125 
Q 55.078125 49.078125 51.53125 44.71875 
Q 48 40.375 41.703125 38.8125 
Q 48.828125 37.15625 52.796875 32.3125 
Q 56.78125 27.484375 56.78125 20.515625 
Q 56.78125 9.90625 50.3125 4.234375 
Q 43.84375 -1.421875 31.78125 -1.421875 
Q 19.734375 -1.421875 13.25 4.234375 
Q 6.78125 9.90625 6.78125 20.515625 
Q 6.78125 27.484375 10.78125 32.3125 
Q 14.796875 37.15625 21.921875 38.8125 
z
M 18.3125 54.390625 
Q 18.3125 48.734375 21.84375 45.5625 
Q 25.390625 42.390625 31.78125 42.390625 
Q 38.140625 42.390625 41.71875 45.5625 
Q 45.3125 48.734375 45.3125 54.390625 
Q 45.3125 60.0625 41.71875 63.234375 
Q 38.140625 66.40625 31.78125 66.40625 
Q 25.390625 66.40625 21.84375 63.234375 
Q 18.3125 60.0625 18.3125 54.390625 
z
" id="DejaVuSans-56"/>
     </defs>
     <g transform="translate(260.246442 133.915512)scale(0.12 -0.12)">
      <use xlink:href="#DejaVuSans-56"/>
     </g>
    </g>
   </g>
   <g id="text_12">
    <g clip-path="url(#pb5d400f964)">
     <!-- 9 -->
     <defs>
      <path d="M 10.984375 1.515625 
L 10.984375 10.5 
Q 14.703125 8.734375 18.5 7.8125 
Q 22.3125 6.890625 25.984375 6.890625 
Q 35.75 6.890625 40.890625 13.453125 
Q 46.046875 20.015625 46.78125 33.40625 
Q 43.953125 29.203125 39.59375 26.953125 
Q 35.25 24.703125 29.984375 24.703125 
Q 19.046875 24.703125 12.671875 31.3125 
Q 6.296875 37.9375 6.296875 49.421875 
Q 6.296875 60.640625 12.9375 67.421875 
Q 19.578125 74.21875 30.609375 74.21875 
Q 43.265625 74.21875 49.921875 64.515625 
Q 56.59375 54.828125 56.59375 36.375 
Q 56.59375 19.140625 48.40625 8.859375 
Q 40.234375 -1.421875 26.421875 -1.421875 
Q 22.703125 -1.421875 18.890625 -0.6875 
Q 15.09375 0.046875 10.984375 1.515625 
z
M 30.609375 32.421875 
Q 37.25 32.421875 41.125 36.953125 
Q 45.015625 41.5 45.015625 49.421875 
Q 45.015625 57.28125 41.125 61.84375 
Q 37.25 66.40625 30.609375 66.40625 
Q 23.96875 66.40625 20.09375 61.84375 
Q 16.21875 57.28125 16.21875 49.421875 
Q 16.21875 41.5 20.09375 36.953125 
Q 23.96875 32.421875 30.609375 32.421875 
z
" id="DejaVuSans-57"/>
     </defs>
     <g transform="translate(276.96884 234.821263)scale(0.12 -0.12)">
      <use xlink:href="#DejaVuSans-57"/>
     </g>
    </g>
   </g>
  </g>
 </g>
 <defs>
  <clipPath id="pb5d400f964">
   <rect height="288" width="432" x="0" y="0"/>
  </clipPath>
 </defs>
</svg>
